<mxfile host="app.diagrams.net" modified="2023-01-16T12:50:09.874Z" agent="5.0 (Windows NT 10.0; Win64; x64) AppleWebKit/537.36 (KHTML, like Gecko) Chrome/109.0.0.0 Safari/537.36 Edg/109.0.1518.52" etag="FiBQm_g9fsxNVYdENjJ9" version="20.8.5" type="github">
  <diagram id="C5RBs43oDa-KdzZeNtuy" name="Page-1">
    <mxGraphModel dx="1050" dy="541" grid="1" gridSize="10" guides="1" tooltips="1" connect="1" arrows="1" fold="1" page="1" pageScale="1" pageWidth="827" pageHeight="1169" math="0" shadow="0">
      <root>
        <mxCell id="WIyWlLk6GJQsqaUBKTNV-0" />
        <mxCell id="WIyWlLk6GJQsqaUBKTNV-1" parent="WIyWlLk6GJQsqaUBKTNV-0" />
        <mxCell id="xfTERN0btsfUpumavbib-25" style="edgeStyle=orthogonalEdgeStyle;rounded=0;orthogonalLoop=1;jettySize=auto;html=1;exitX=1;exitY=0.75;exitDx=0;exitDy=0;entryX=0;entryY=0.25;entryDx=0;entryDy=0;fontSize=14;strokeColor=#666666;fillColor=#f5f5f5;" parent="WIyWlLk6GJQsqaUBKTNV-1" source="xfTERN0btsfUpumavbib-0" target="xfTERN0btsfUpumavbib-23" edge="1">
          <mxGeometry relative="1" as="geometry">
            <Array as="points">
              <mxPoint x="299" y="623" />
              <mxPoint x="414" y="623" />
            </Array>
          </mxGeometry>
        </mxCell>
        <mxCell id="xfTERN0btsfUpumavbib-0" value="&lt;font style=&quot;font-size: 24px;&quot;&gt;小A&lt;/font&gt;" style="rounded=0;whiteSpace=wrap;html=1;" parent="WIyWlLk6GJQsqaUBKTNV-1" vertex="1">
          <mxGeometry x="179" y="480" width="120" height="220" as="geometry" />
        </mxCell>
        <mxCell id="xfTERN0btsfUpumavbib-22" style="edgeStyle=orthogonalEdgeStyle;rounded=0;orthogonalLoop=1;jettySize=auto;html=1;exitX=0;exitY=0.75;exitDx=0;exitDy=0;fontSize=14;fillColor=#f5f5f5;strokeColor=#666666;" parent="WIyWlLk6GJQsqaUBKTNV-1" source="xfTERN0btsfUpumavbib-8" edge="1">
          <mxGeometry relative="1" as="geometry">
            <mxPoint x="299" y="547" as="targetPoint" />
          </mxGeometry>
        </mxCell>
        <mxCell id="xfTERN0btsfUpumavbib-8" value="&lt;font style=&quot;font-size: 24px;&quot;&gt;小B&lt;/font&gt;" style="rounded=0;whiteSpace=wrap;html=1;fontSize=24;" parent="WIyWlLk6GJQsqaUBKTNV-1" vertex="1">
          <mxGeometry x="529" y="480" width="120" height="90" as="geometry" />
        </mxCell>
        <mxCell id="xfTERN0btsfUpumavbib-11" value="&lt;font style=&quot;font-size: 14px;&quot;&gt;①、帮我拿个快递&lt;/font&gt;" style="text;html=1;align=center;verticalAlign=middle;resizable=0;points=[];autosize=1;strokeColor=#666666;fillColor=#f5f5f5;fontSize=24;rounded=0;fontColor=#333333;" parent="WIyWlLk6GJQsqaUBKTNV-1" vertex="1">
          <mxGeometry x="339" y="470" width="140" height="40" as="geometry" />
        </mxCell>
        <mxCell id="xfTERN0btsfUpumavbib-16" value="②、我没空你找小C吧" style="text;html=1;align=center;verticalAlign=middle;resizable=0;points=[];autosize=1;strokeColor=#666666;fillColor=#f5f5f5;fontSize=14;rounded=0;fontColor=#333333;" parent="WIyWlLk6GJQsqaUBKTNV-1" vertex="1">
          <mxGeometry x="339" y="520" width="160" height="30" as="geometry" />
        </mxCell>
        <mxCell id="xfTERN0btsfUpumavbib-19" value="" style="endArrow=classic;html=1;rounded=0;fontSize=14;exitX=1.017;exitY=0.132;exitDx=0;exitDy=0;exitPerimeter=0;entryX=0.008;entryY=0.333;entryDx=0;entryDy=0;entryPerimeter=0;fillColor=#f5f5f5;strokeColor=#666666;" parent="WIyWlLk6GJQsqaUBKTNV-1" source="xfTERN0btsfUpumavbib-0" target="xfTERN0btsfUpumavbib-8" edge="1">
          <mxGeometry width="50" height="50" relative="1" as="geometry">
            <mxPoint x="299" y="560" as="sourcePoint" />
            <mxPoint x="369" y="560" as="targetPoint" />
          </mxGeometry>
        </mxCell>
        <mxCell id="xfTERN0btsfUpumavbib-28" style="edgeStyle=orthogonalEdgeStyle;rounded=0;orthogonalLoop=1;jettySize=auto;html=1;exitX=0;exitY=0.75;exitDx=0;exitDy=0;entryX=1;entryY=0.855;entryDx=0;entryDy=0;entryPerimeter=0;fontSize=14;fillColor=#f5f5f5;strokeColor=#666666;" parent="WIyWlLk6GJQsqaUBKTNV-1" source="xfTERN0btsfUpumavbib-23" target="xfTERN0btsfUpumavbib-0" edge="1">
          <mxGeometry relative="1" as="geometry" />
        </mxCell>
        <mxCell id="xfTERN0btsfUpumavbib-23" value="&lt;font style=&quot;font-size: 24px;&quot;&gt;小C&lt;/font&gt;" style="rounded=0;whiteSpace=wrap;html=1;fontSize=24;" parent="WIyWlLk6GJQsqaUBKTNV-1" vertex="1">
          <mxGeometry x="529" y="600" width="120" height="90" as="geometry" />
        </mxCell>
        <mxCell id="xfTERN0btsfUpumavbib-26" value="&lt;font style=&quot;font-size: 14px;&quot;&gt;③、帮我拿个快递&lt;/font&gt;" style="text;html=1;align=center;verticalAlign=middle;resizable=0;points=[];autosize=1;strokeColor=#666666;fillColor=#f5f5f5;fontSize=24;rounded=0;fontColor=#333333;" parent="WIyWlLk6GJQsqaUBKTNV-1" vertex="1">
          <mxGeometry x="339" y="580" width="140" height="40" as="geometry" />
        </mxCell>
        <mxCell id="xfTERN0btsfUpumavbib-29" value="④、OK，拿到了" style="text;html=1;align=center;verticalAlign=middle;resizable=0;points=[];autosize=1;strokeColor=#666666;fillColor=#f5f5f5;fontSize=14;rounded=0;fontColor=#333333;" parent="WIyWlLk6GJQsqaUBKTNV-1" vertex="1">
          <mxGeometry x="339" y="640" width="130" height="30" as="geometry" />
        </mxCell>
      </root>
    </mxGraphModel>
  </diagram>
</mxfile>
